<?xml version="1.0" encoding="UTF-8"?>
<!-- High-res stylized construction background (vector) - scalable and crisp -->
<svg xmlns="http://www.w3.org/2000/svg" viewBox="0 0 3840 2160" width="3840" height="2160" preserveAspectRatio="xMidYMid slice">
  <defs>
    <linearGradient id="bgGrad" x1="0" x2="0" y1="0" y2="1">
      <stop offset="0%" stop-color="#0d3a66"/>
      <stop offset="45%" stop-color="#0f3f64"/>
      <stop offset="100%" stop-color="#1a2730"/>
    </linearGradient>
    <linearGradient id="warm" x1="0" x2="1">
      <stop offset="0%" stop-color="#e99b2f"/>
      <stop offset="100%" stop-color="#cf6a2b"/>
    </linearGradient>
    <filter id="grain">
      <feTurbulence type="fractalNoise" baseFrequency="0.8" numOctaves="2" stitchTiles="stitch" result="noise"/>
      <feColorMatrix type="saturate" values="0"/>
      <feComponentTransfer>
        <feFuncA type="table" tableValues="0 0.08" />
      </feComponentTransfer>
      <feBlend in="SourceGraphic"/>
    </filter>
  </defs>

  <!-- background -->
  <rect width="100%" height="100%" fill="url(#bgGrad)" />

  <!-- soft radial highlight top-left -->
  <radialGradient id="highlight" cx="0.15" cy="0.12" r="0.6">
    <stop offset="0%" stop-color="rgba(255,255,255,0.08)"/>
    <stop offset="100%" stop-color="rgba(255,255,255,0)"/>
  </radialGradient>
  <rect width="100%" height="100%" fill="url(#highlight)" />

  <!-- distant building silhouettes (left) -->
  <g transform="translate(120,520) scale(1)">
    <rect x="0" y="220" width="480" height="980" rx="12" fill="#0b2b44" opacity="0.9"/>
    <rect x="520" y="300" width="360" height="900" rx="8" fill="#0c314c" opacity="0.85"/>
    <rect x="940" y="380" width="320" height="820" rx="6" fill="#0b2b44" opacity="0.8"/>
    <!-- windows -->
    <g fill="#09212f" opacity="0.35">
      <rect x="30" y="260" width="40" height="60" rx="6"/>
      <rect x="90" y="260" width="40" height="60" rx="6"/>
      <rect x="150" y="260" width="40" height="60" rx="6"/>
      <rect x="210" y="260" width="40" height="60" rx="6"/>
      <rect x="30" y="340" width="40" height="60" rx="6"/>
    </g>
  </g>

  <!-- main foreground building shape (right) -->
  <g transform="translate(1400,520)">
    <path d="M0 400 L880 400 L960 220 L960 180 L860 100 L740 100 L680 160 L0 160 Z" fill="#102a3b" opacity="0.98"/>
    <!-- balconies / panels -->
    <g fill="#0b2d3d" opacity="0.7">
      <rect x="40" y="200" width="820" height="40" rx="8"/>
      <rect x="40" y="260" width="820" height="40" rx="8"/>
      <rect x="40" y="320" width="820" height="40" rx="8"/>
    </g>
  </g>

  <!-- stylized crane (center-left) -->
  <g transform="translate(600,420) scale(1.1)">
    <!-- vertical mast -->
    <rect x="200" y="-40" width="28" height="720" fill="#1a1a1a"/>
    <!-- diagonal jib -->
    <path d="M220 40 L760 -120 L780 -100 L240 60 Z" fill="url(#warm)" opacity="0.95"/>
    <!-- trolley and hook -->
    <rect x="640" y="-116" width="12" height="24" fill="#111"/>
    <line x1="646" y1="-92" x2="646" y2="20" stroke="#111" stroke-width="6" stroke-linecap="round"/>
    <circle cx="646" cy="36" r="18" fill="#cf6a2b" opacity="0.95"/>
  </g>

  <!-- warm light flare (right) -->
  <ellipse cx="3300" cy="1600" rx="720" ry="420" fill="rgba(220,120,60,0.08)" />

  <!-- subtle grain overlay to avoid flatness -->
  <rect width="100%" height="100%" fill="none" filter="url(#grain)"/>

</svg>
